# xmcd
#
# Track frame offsets:
#	150
#	19179
#	40584
#	59156
#	76657
#	95213
#	118992
#	136624
#	154834
#	171676
#
# Disc length: 2529 seconds
#
# Revision: 0
# Processed by: cddbd v1.5.2PL0 Copyright (c) Steve Scherf et al.
# Submitted via: EasyCDDAExtractor 12.0.1.1
#
DISCID=8709df0a
DTITLE=Rena Scott - Let Me Love You
DYEAR=2004
DGENRE=R&B
TTITLE0=A Love Thang
TTITLE1=Let Me Love You
TTITLE2=Good To Me
TTITLE3=Day And Night
TTITLE4=I Know It's Right
TTITLE5=Remember
TTITLE6=Move On It
TTITLE7=Plaything
TTITLE8=Not Forever
TTITLE9=I'll Keep Coming Back
EXTD=
EXTT0=
EXTT1=
EXTT2=
EXTT3=
EXTT4=
EXTT5=
EXTT6=
EXTT7=
EXTT8=
EXTT9=
PLAYORDER=
